<?xml version="1.0" encoding="UTF-8" standalone="no"?>
<!DOCTYPE svg PUBLIC "-//W3C//DTD SVG 1.1//EN"
 "http://www.w3.org/Graphics/SVG/1.1/DTD/svg11.dtd">
<!-- Generated by graphviz version 2.42.3 (20191010.1750)
 -->
<!-- Title: G0 Pages: 1 -->
<svg width="2228pt" height="2361pt"
 viewBox="0.00 0.00 2228.00 2361.00" xmlns="http://www.w3.org/2000/svg" xmlns:xlink="http://www.w3.org/1999/xlink">
<g id="graph0" class="graph" transform="scale(1 1) rotate(0) translate(4 2357)">
<title>G0</title>
<polygon fill="white" stroke="transparent" points="-4,4 -4,-2357 2224,-2357 2224,4 -4,4"/>
<g id="clust1" class="cluster">
<title>clustersubgraph0</title>
<polygon fill="none" stroke="black" points="1753,-2238 1753,-2345 1995,-2345 1995,-2238 1753,-2238"/>
<text text-anchor="middle" x="1874" y="-2329.8" font-family="Times,serif" font-size="14.00">subgraph_CNN2D__input_0</text>
</g>
<g id="clust2" class="cluster">
<title>clustersubgraph1</title>
<polygon fill="none" stroke="black" points="8,-123 8,-1723 2187,-1723 2187,-123 8,-123"/>
<text text-anchor="middle" x="1097.5" y="-1707.8" font-family="Times,serif" font-size="14.00">subgraph_CNN2D__CNN2D_AdaptiveAvgPool2d_adaptive_avg_pool2d__504_fix</text>
</g>
<g id="clust3" class="cluster">
<title>clustersubgraph2</title>
<polygon fill="none" stroke="black" points="616,-540 616,-796 1291,-796 1291,-540 616,-540"/>
<text text-anchor="middle" x="953.5" y="-780.8" font-family="Times,serif" font-size="14.00">subgraph_CNN2D__CNN2D_Linear_fc1__ret_19(TransferMatMulToConv2d)</text>
</g>
<g id="clust4" class="cluster">
<title>clustersubgraph3</title>
<polygon fill="none" stroke="black" points="1299,-406 1299,-662 1974,-662 1974,-406 1299,-406"/>
<text text-anchor="middle" x="1636.5" y="-646.8" font-family="Times,serif" font-size="14.00">subgraph_CNN2D__CNN2D_Linear_fc2__ret(TransferMatMulToConv2d)</text>
</g>
<g id="clust5" class="cluster">
<title>clustersubgraph4</title>
<polygon fill="none" stroke="black" points="1623,-1555 1623,-1692 2126,-1692 2126,-1555 1623,-1555"/>
<text text-anchor="middle" x="1874.5" y="-1676.8" font-family="Times,serif" font-size="14.00">subgraph_CNN2D__CNN2D_ret_3_swim_transpose_0_fix_upload_0</text>
</g>
<g id="clust6" class="cluster">
<title>clustersubgraph5</title>
<polygon fill="none" stroke="black" points="1634,-1410 1634,-1547 2179,-1547 2179,-1410 1634,-1410"/>
<text text-anchor="middle" x="1906.5" y="-1531.8" font-family="Times,serif" font-size="14.00">subgraph_CNN2D__CNN2D_Upsample_upsample__ret_5_transfered_pad</text>
</g>
<g id="clust7" class="cluster">
<title>clustersubgraph6</title>
<polygon fill="none" stroke="black" points="1146,-1295 1146,-1547 1626,-1547 1626,-1295 1146,-1295"/>
<text text-anchor="middle" x="1386" y="-1531.8" font-family="Times,serif" font-size="14.00">subgraph_CNN2D__CNN2D_Upsample_upsample__ret_5</text>
</g>
<g id="clust8" class="cluster">
<title>clustersubgraph7</title>
<polygon fill="none" stroke="black" points="581,-1057 581,-1402 1138,-1402 1138,-1057 581,-1057"/>
<text text-anchor="middle" x="859.5" y="-1386.8" font-family="Times,serif" font-size="14.00">subgraph_CNN2D__CNN2D_AdaptiveAvgPool2d_adaptive_pool1__446_fix</text>
</g>
<g id="clust9" class="cluster">
<title>clustersubgraph8</title>
<polygon fill="none" stroke="black" points="16,-819 16,-1179 573,-1179 573,-819 16,-819"/>
<text text-anchor="middle" x="294.5" y="-1163.8" font-family="Times,serif" font-size="14.00">subgraph_CNN2D__CNN2D_AdaptiveAvgPool2d_adaptive_pool2__486_fix</text>
</g>
<g id="clust10" class="cluster">
<title>clustersubgraph9</title>
<polygon fill="none" stroke="black" points="16,-674 16,-811 608,-811 608,-674 16,-674"/>
<text text-anchor="middle" x="312" y="-795.8" font-family="Times,serif" font-size="14.00">subgraph_CNN2D__CNN2D_AdaptiveAvgPool2d_adaptive_avg_pool2d__504_fix</text>
</g>
<g id="clust11" class="cluster">
<title>clustersubgraph10</title>
<polygon fill="none" stroke="black" points="1175,-261 1175,-398 1898,-398 1898,-261 1175,-261"/>
<text text-anchor="middle" x="1536.5" y="-382.8" font-family="Times,serif" font-size="14.00">subgraph_CNN2D__CNN2D_Linear_fc2__ret(TransferMatMulToConv2d)_inserted_fix_3_reshaped</text>
</g>
<g id="clust12" class="cluster">
<title>clustersubgraph11</title>
<polygon fill="none" stroke="black" points="1129,-131 1129,-253 1944,-253 1944,-131 1129,-131"/>
<text text-anchor="middle" x="1536.5" y="-237.8" font-family="Times,serif" font-size="14.00">subgraph_CNN2D__CNN2D_Linear_fc2__ret(TransferMatMulToConv2d)_inserted_fix_3_reshaped_download_0</text>
</g>
<g id="clust13" class="cluster">
<title>clustersubgraph12</title>
<polygon fill="none" stroke="black" points="1641,-2084 1641,-2230 2107,-2230 2107,-2084 1641,-2084"/>
<text text-anchor="middle" x="1874" y="-2214.8" font-family="Times,serif" font-size="14.00">subgraph_CNN2D__CNN2D_ret_3</text>
</g>
<g id="clust14" class="cluster">
<title>clustersubgraph13</title>
<polygon fill="none" stroke="black" points="1649,-2092 1649,-2199 2099,-2199 2099,-2092 1649,-2092"/>
<text text-anchor="middle" x="1874" y="-2183.8" font-family="Times,serif" font-size="14.00">subgraph_CNN2D__CNN2D_ret_3</text>
</g>
<g id="clust15" class="cluster">
<title>clustersubgraph14</title>
<polygon fill="none" stroke="black" points="1600,-1731 1600,-2076 2212,-2076 2212,-1731 1600,-1731"/>
<text text-anchor="middle" x="1906" y="-2060.8" font-family="Times,serif" font-size="14.00">subgraph_CNN2D__CNN2D_ret_3_fix_CNN2D__CNN2D_ret_3_swim_transpose_0</text>
</g>
<g id="clust16" class="cluster">
<title>clustersubgraph15</title>
<polygon fill="none" stroke="black" points="1349,-8 1349,-115 1723,-115 1723,-8 1349,-8"/>
<text text-anchor="middle" x="1536" y="-99.8" font-family="Times,serif" font-size="14.00">subgraph_CNN2D__CNN2D_Linear_fc2__ret_fix_</text>
</g>
<!-- 0 -->
<g id="node1" class="node">
<title>0</title>
<path fill="none" stroke="green" d="M1975,-2314C1975,-2314 1773,-2314 1773,-2314 1767,-2314 1761,-2308 1761,-2302 1761,-2302 1761,-2258 1761,-2258 1761,-2252 1767,-2246 1773,-2246 1773,-2246 1975,-2246 1975,-2246 1981,-2246 1987,-2252 1987,-2258 1987,-2258 1987,-2302 1987,-2302 1987,-2308 1981,-2314 1975,-2314"/>
<text text-anchor="middle" x="1874" y="-2298.8" font-family="Times,serif" font-size="14.00">Name: CNN2D__input_0</text>
<text text-anchor="middle" x="1874" y="-2283.8" font-family="Times,serif" font-size="14.00">Type: data&#45;fix</text>
<text text-anchor="middle" x="1874" y="-2268.8" font-family="Times,serif" font-size="14.00">Tensor: CNN2D__input_0_fix</text>
<text text-anchor="middle" x="1874" y="-2253.8" font-family="Times,serif" font-size="14.00">Shape: {1, 2, 128}</text>
</g>
<!-- 10 -->
<g id="node23" class="node">
<title>10</title>
<path fill="none" stroke="red" d="M2079,-2168C2079,-2168 1669,-2168 1669,-2168 1663,-2168 1657,-2162 1657,-2156 1657,-2156 1657,-2112 1657,-2112 1657,-2106 1663,-2100 1669,-2100 1669,-2100 2079,-2100 2079,-2100 2085,-2100 2091,-2106 2091,-2112 2091,-2112 2091,-2156 2091,-2156 2091,-2162 2085,-2168 2079,-2168"/>
<text text-anchor="middle" x="1874" y="-2152.8" font-family="Times,serif" font-size="14.00">Name: CNN2D__CNN2D_ret_3</text>
<text text-anchor="middle" x="1874" y="-2137.8" font-family="Times,serif" font-size="14.00">Type: reshape&#45;fix</text>
<text text-anchor="middle" x="1874" y="-2122.8" font-family="Times,serif" font-size="14.00">Tensor: CNN2D__CNN2D_ret_3_fix(DeviceReassignment)</text>
<text text-anchor="middle" x="1874" y="-2107.8" font-family="Times,serif" font-size="14.00">Shape: {1, 2, 1, 128}</text>
</g>
<!-- 0&#45;&gt;10 -->
<g id="edge23" class="edge">
<title>0&#45;&gt;10</title>
<path fill="none" stroke="black" d="M1874,-2245.96C1874,-2225.98 1874,-2200.27 1874,-2178.63"/>
<polygon fill="black" stroke="black" points="1877.5,-2178.38 1874,-2168.38 1870.5,-2178.38 1877.5,-2178.38"/>
</g>
<!-- 2 -->
<g id="node2" class="node">
<title>2</title>
<path fill="none" stroke="blue" d="M1271,-765C1271,-765 885,-765 885,-765 879,-765 873,-759 873,-753 873,-753 873,-709 873,-709 873,-703 879,-697 885,-697 885,-697 1271,-697 1271,-697 1277,-697 1283,-703 1283,-709 1283,-709 1283,-753 1283,-753 1283,-759 1277,-765 1271,-765"/>
<text text-anchor="middle" x="1078" y="-749.8" font-family="Times,serif" font-size="14.00">Name: CNN2D__fc1_weight(reshaped)</text>
<text text-anchor="middle" x="1078" y="-734.8" font-family="Times,serif" font-size="14.00">Type: const&#45;fix</text>
<text text-anchor="middle" x="1078" y="-719.8" font-family="Times,serif" font-size="14.00">Tensor: CNN2D__fc1_weight(reshaped)_inserted_fix_0</text>
<text text-anchor="middle" x="1078" y="-704.8" font-family="Times,serif" font-size="14.00">Shape: {256, 1, 1, 128}</text>
</g>
<!-- 23 -->
<g id="node4" class="node">
<title>23</title>
<path fill="none" stroke="blue" d="M1171.5,-646C1171.5,-646 734.5,-646 734.5,-646 728.5,-646 722.5,-640 722.5,-634 722.5,-634 722.5,-560 722.5,-560 722.5,-554 728.5,-548 734.5,-548 734.5,-548 1171.5,-548 1171.5,-548 1177.5,-548 1183.5,-554 1183.5,-560 1183.5,-560 1183.5,-634 1183.5,-634 1183.5,-640 1177.5,-646 1171.5,-646"/>
<text text-anchor="middle" x="953" y="-630.8" font-family="Times,serif" font-size="14.00">Name: CNN2D__CNN2D_Linear_fc1__ret_19(TransferMatMu</text>
<text text-anchor="middle" x="953" y="-615.8" font-family="Times,serif" font-size="14.00">lToConv2d)</text>
<text text-anchor="middle" x="953" y="-600.8" font-family="Times,serif" font-size="14.00">Type: conv2d&#45;fix</text>
<text text-anchor="middle" x="953" y="-585.8" font-family="Times,serif" font-size="14.00">Tensor: CNN2D__CNN2D_ReLU_relu3__ret_21(TransferMa</text>
<text text-anchor="middle" x="953" y="-570.8" font-family="Times,serif" font-size="14.00">tMulToConv2d)_inserted_fix_1</text>
<text text-anchor="middle" x="953" y="-555.8" font-family="Times,serif" font-size="14.00">Shape: {1, 1, 1, 256}</text>
</g>
<!-- 2&#45;&gt;23 -->
<g id="edge1" class="edge">
<title>2&#45;&gt;23</title>
<path fill="none" stroke="black" d="M1046.46,-696.69C1034.08,-683.62 1019.53,-668.26 1005.65,-653.6"/>
<polygon fill="black" stroke="black" points="1007.88,-650.87 998.46,-646.01 1002.8,-655.68 1007.88,-650.87"/>
</g>
<!-- 8 -->
<g id="node3" class="node">
<title>8</title>
<path fill="none" stroke="blue" d="M842.5,-765C842.5,-765 635.5,-765 635.5,-765 629.5,-765 623.5,-759 623.5,-753 623.5,-753 623.5,-709 623.5,-709 623.5,-703 629.5,-697 635.5,-697 635.5,-697 842.5,-697 842.5,-697 848.5,-697 854.5,-703 854.5,-709 854.5,-709 854.5,-753 854.5,-753 854.5,-759 848.5,-765 842.5,-765"/>
<text text-anchor="middle" x="739" y="-749.8" font-family="Times,serif" font-size="14.00">Name: CNN2D__fc1_bias</text>
<text text-anchor="middle" x="739" y="-734.8" font-family="Times,serif" font-size="14.00">Type: const&#45;fix</text>
<text text-anchor="middle" x="739" y="-719.8" font-family="Times,serif" font-size="14.00">Tensor: CNN2D__fc1_bias_fix</text>
<text text-anchor="middle" x="739" y="-704.8" font-family="Times,serif" font-size="14.00">Shape: {256}</text>
</g>
<!-- 8&#45;&gt;23 -->
<g id="edge2" class="edge">
<title>8&#45;&gt;23</title>
<path fill="none" stroke="black" d="M792.73,-696.86C814.99,-683.13 841.38,-666.85 866.25,-651.51"/>
<polygon fill="black" stroke="black" points="868.31,-654.35 874.98,-646.12 864.63,-648.4 868.31,-654.35"/>
</g>
<!-- 24 -->
<g id="node7" class="node">
<title>24</title>
<path fill="none" stroke="blue" d="M1753,-512C1753,-512 1319,-512 1319,-512 1313,-512 1307,-506 1307,-500 1307,-500 1307,-426 1307,-426 1307,-420 1313,-414 1319,-414 1319,-414 1753,-414 1753,-414 1759,-414 1765,-420 1765,-426 1765,-426 1765,-500 1765,-500 1765,-506 1759,-512 1753,-512"/>
<text text-anchor="middle" x="1536" y="-496.8" font-family="Times,serif" font-size="14.00">Name: CNN2D__CNN2D_Linear_fc2__ret(TransferMatMulTo</text>
<text text-anchor="middle" x="1536" y="-481.8" font-family="Times,serif" font-size="14.00">Conv2d)</text>
<text text-anchor="middle" x="1536" y="-466.8" font-family="Times,serif" font-size="14.00">Type: conv2d&#45;fix</text>
<text text-anchor="middle" x="1536" y="-451.8" font-family="Times,serif" font-size="14.00">Tensor: CNN2D__CNN2D_Linear_fc2__ret(TransferMatMu</text>
<text text-anchor="middle" x="1536" y="-436.8" font-family="Times,serif" font-size="14.00">lToConv2d)_inserted_fix_3</text>
<text text-anchor="middle" x="1536" y="-421.8" font-family="Times,serif" font-size="14.00">Shape: {1, 1, 1, 2}</text>
</g>
<!-- 23&#45;&gt;24 -->
<g id="edge19" class="edge">
<title>23&#45;&gt;24</title>
<path fill="none" stroke="black" d="M1165.13,-547.97C1213.4,-537.04 1264.82,-525.4 1313.52,-514.37"/>
<polygon fill="black" stroke="black" points="1314.56,-517.73 1323.54,-512.1 1313.02,-510.9 1314.56,-517.73"/>
</g>
<!-- 1 -->
<g id="node5" class="node">
<title>1</title>
<path fill="none" stroke="blue" d="M1954,-631C1954,-631 1568,-631 1568,-631 1562,-631 1556,-625 1556,-619 1556,-619 1556,-575 1556,-575 1556,-569 1562,-563 1568,-563 1568,-563 1954,-563 1954,-563 1960,-563 1966,-569 1966,-575 1966,-575 1966,-619 1966,-619 1966,-625 1960,-631 1954,-631"/>
<text text-anchor="middle" x="1761" y="-615.8" font-family="Times,serif" font-size="14.00">Name: CNN2D__fc2_weight(reshaped)</text>
<text text-anchor="middle" x="1761" y="-600.8" font-family="Times,serif" font-size="14.00">Type: const&#45;fix</text>
<text text-anchor="middle" x="1761" y="-585.8" font-family="Times,serif" font-size="14.00">Tensor: CNN2D__fc2_weight(reshaped)_inserted_fix_2</text>
<text text-anchor="middle" x="1761" y="-570.8" font-family="Times,serif" font-size="14.00">Shape: {2, 1, 1, 256}</text>
</g>
<!-- 1&#45;&gt;24 -->
<g id="edge3" class="edge">
<title>1&#45;&gt;24</title>
<path fill="none" stroke="black" d="M1704.51,-562.86C1681.01,-549.07 1653.12,-532.71 1626.86,-517.31"/>
<polygon fill="black" stroke="black" points="1628.43,-514.17 1618.03,-512.12 1624.88,-520.2 1628.43,-514.17"/>
</g>
<!-- 9 -->
<g id="node6" class="node">
<title>9</title>
<path fill="none" stroke="blue" d="M1525.5,-631C1525.5,-631 1318.5,-631 1318.5,-631 1312.5,-631 1306.5,-625 1306.5,-619 1306.5,-619 1306.5,-575 1306.5,-575 1306.5,-569 1312.5,-563 1318.5,-563 1318.5,-563 1525.5,-563 1525.5,-563 1531.5,-563 1537.5,-569 1537.5,-575 1537.5,-575 1537.5,-619 1537.5,-619 1537.5,-625 1531.5,-631 1525.5,-631"/>
<text text-anchor="middle" x="1422" y="-615.8" font-family="Times,serif" font-size="14.00">Name: CNN2D__fc2_bias</text>
<text text-anchor="middle" x="1422" y="-600.8" font-family="Times,serif" font-size="14.00">Type: const&#45;fix</text>
<text text-anchor="middle" x="1422" y="-585.8" font-family="Times,serif" font-size="14.00">Tensor: CNN2D__fc2_bias_fix</text>
<text text-anchor="middle" x="1422" y="-570.8" font-family="Times,serif" font-size="14.00">Shape: {2}</text>
</g>
<!-- 9&#45;&gt;24 -->
<g id="edge4" class="edge">
<title>9&#45;&gt;24</title>
<path fill="none" stroke="black" d="M1450.77,-562.69C1462.06,-549.62 1475.32,-534.26 1487.98,-519.6"/>
<polygon fill="black" stroke="black" points="1490.65,-521.87 1494.54,-512.01 1485.35,-517.29 1490.65,-521.87"/>
</g>
<!-- 22 -->
<g id="node21" class="node">
<title>22</title>
<path fill="none" stroke="blue" d="M1753,-367C1753,-367 1319,-367 1319,-367 1313,-367 1307,-361 1307,-355 1307,-355 1307,-281 1307,-281 1307,-275 1313,-269 1319,-269 1319,-269 1753,-269 1753,-269 1759,-269 1765,-275 1765,-281 1765,-281 1765,-355 1765,-355 1765,-361 1759,-367 1753,-367"/>
<text text-anchor="middle" x="1536" y="-351.8" font-family="Times,serif" font-size="14.00">Name: CNN2D__CNN2D_Linear_fc2__ret(TransferMatMulTo</text>
<text text-anchor="middle" x="1536" y="-336.8" font-family="Times,serif" font-size="14.00">Conv2d)_inserted_fix_3_reshaped</text>
<text text-anchor="middle" x="1536" y="-321.8" font-family="Times,serif" font-size="14.00">Type: reshape&#45;fix</text>
<text text-anchor="middle" x="1536" y="-306.8" font-family="Times,serif" font-size="14.00">Tensor: CNN2D__CNN2D_Linear_fc2__ret_fix_download_</text>
<text text-anchor="middle" x="1536" y="-291.8" font-family="Times,serif" font-size="14.00">0</text>
<text text-anchor="middle" x="1536" y="-276.8" font-family="Times,serif" font-size="14.00">Shape: {1, 2}</text>
</g>
<!-- 24&#45;&gt;22 -->
<g id="edge20" class="edge">
<title>24&#45;&gt;22</title>
<path fill="none" stroke="black" d="M1536,-413.99C1536,-402.19 1536,-389.45 1536,-377.23"/>
<polygon fill="black" stroke="black" points="1539.5,-377.13 1536,-367.13 1532.5,-377.13 1539.5,-377.13"/>
</g>
<!-- 14 -->
<g id="node8" class="node">
<title>14</title>
<path fill="none" stroke="blue" d="M2089,-1661C2089,-1661 1659,-1661 1659,-1661 1653,-1661 1647,-1655 1647,-1649 1647,-1649 1647,-1575 1647,-1575 1647,-1569 1653,-1563 1659,-1563 1659,-1563 2089,-1563 2089,-1563 2095,-1563 2101,-1569 2101,-1575 2101,-1575 2101,-1649 2101,-1649 2101,-1655 2095,-1661 2089,-1661"/>
<text text-anchor="middle" x="1874" y="-1645.8" font-family="Times,serif" font-size="14.00">Name: CNN2D__CNN2D_ret_3_swim_transpose_0_fix_uploa</text>
<text text-anchor="middle" x="1874" y="-1630.8" font-family="Times,serif" font-size="14.00">d_0</text>
<text text-anchor="middle" x="1874" y="-1615.8" font-family="Times,serif" font-size="14.00">Type: upload</text>
<text text-anchor="middle" x="1874" y="-1600.8" font-family="Times,serif" font-size="14.00">Tensor: CNN2D__CNN2D_ret_3_swim_transpose_0_fix_up</text>
<text text-anchor="middle" x="1874" y="-1585.8" font-family="Times,serif" font-size="14.00">load_0</text>
<text text-anchor="middle" x="1874" y="-1570.8" font-family="Times,serif" font-size="14.00">Shape: {1, 1, 128, 2}</text>
</g>
<!-- 15 -->
<g id="node9" class="node">
<title>15</title>
<path fill="none" stroke="blue" d="M2094,-1516C2094,-1516 1654,-1516 1654,-1516 1648,-1516 1642,-1510 1642,-1504 1642,-1504 1642,-1430 1642,-1430 1642,-1424 1648,-1418 1654,-1418 1654,-1418 2094,-1418 2094,-1418 2100,-1418 2106,-1424 2106,-1430 2106,-1430 2106,-1504 2106,-1504 2106,-1510 2100,-1516 2094,-1516"/>
<text text-anchor="middle" x="1874" y="-1500.8" font-family="Times,serif" font-size="14.00">Name: CNN2D__CNN2D_Upsample_upsample__ret_5_transfe</text>
<text text-anchor="middle" x="1874" y="-1485.8" font-family="Times,serif" font-size="14.00">red_pad</text>
<text text-anchor="middle" x="1874" y="-1470.8" font-family="Times,serif" font-size="14.00">Type: pad&#45;fix</text>
<text text-anchor="middle" x="1874" y="-1455.8" font-family="Times,serif" font-size="14.00">Tensor: CNN2D__CNN2D_Upsample_upsample__ret_5_tran</text>
<text text-anchor="middle" x="1874" y="-1440.8" font-family="Times,serif" font-size="14.00">sfered_pad_fix</text>
<text text-anchor="middle" x="1874" y="-1425.8" font-family="Times,serif" font-size="14.00">Shape: {1, 2, 130, 2}</text>
</g>
<!-- 14&#45;&gt;15 -->
<g id="edge12" class="edge">
<title>14&#45;&gt;15</title>
<path fill="none" stroke="black" d="M1874,-1562.99C1874,-1551.19 1874,-1538.45 1874,-1526.23"/>
<polygon fill="black" stroke="black" points="1877.5,-1526.13 1874,-1516.13 1870.5,-1526.13 1877.5,-1526.13"/>
</g>
<!-- 17 -->
<g id="node11" class="node">
<title>17</title>
<path fill="none" stroke="blue" d="M1592.5,-1371C1592.5,-1371 1179.5,-1371 1179.5,-1371 1173.5,-1371 1167.5,-1365 1167.5,-1359 1167.5,-1359 1167.5,-1315 1167.5,-1315 1167.5,-1309 1173.5,-1303 1179.5,-1303 1179.5,-1303 1592.5,-1303 1592.5,-1303 1598.5,-1303 1604.5,-1309 1604.5,-1315 1604.5,-1315 1604.5,-1359 1604.5,-1359 1604.5,-1365 1598.5,-1371 1592.5,-1371"/>
<text text-anchor="middle" x="1386" y="-1355.8" font-family="Times,serif" font-size="14.00">Name: CNN2D__CNN2D_Upsample_upsample__ret_5</text>
<text text-anchor="middle" x="1386" y="-1340.8" font-family="Times,serif" font-size="14.00">Type: transposed&#45;depthwise&#45;conv2d&#45;fix</text>
<text text-anchor="middle" x="1386" y="-1325.8" font-family="Times,serif" font-size="14.00">Tensor: CNN2D__CNN2D_Upsample_upsample__ret_5_fix</text>
<text text-anchor="middle" x="1386" y="-1310.8" font-family="Times,serif" font-size="14.00">Shape: {1, 1, 256, 2}</text>
</g>
<!-- 15&#45;&gt;17 -->
<g id="edge13" class="edge">
<title>15&#45;&gt;17</title>
<path fill="none" stroke="black" d="M1690.9,-1417.97C1634.76,-1403.25 1574.02,-1387.32 1521.65,-1373.58"/>
<polygon fill="black" stroke="black" points="1522.53,-1370.19 1511.97,-1371.04 1520.75,-1376.96 1522.53,-1370.19"/>
</g>
<!-- 3 -->
<g id="node10" class="node">
<title>3</title>
<path fill="none" stroke="blue" d="M1606,-1516C1606,-1516 1166,-1516 1166,-1516 1160,-1516 1154,-1510 1154,-1504 1154,-1504 1154,-1430 1154,-1430 1154,-1424 1160,-1418 1166,-1418 1166,-1418 1606,-1418 1606,-1418 1612,-1418 1618,-1424 1618,-1430 1618,-1430 1618,-1504 1618,-1504 1618,-1510 1612,-1516 1606,-1516"/>
<text text-anchor="middle" x="1386" y="-1500.8" font-family="Times,serif" font-size="14.00">Name: CNN2D__CNN2D_Upsample_upsample__ret_5_transfe</text>
<text text-anchor="middle" x="1386" y="-1485.8" font-family="Times,serif" font-size="14.00">red_DwDeConv_weights</text>
<text text-anchor="middle" x="1386" y="-1470.8" font-family="Times,serif" font-size="14.00">Type: const&#45;fix</text>
<text text-anchor="middle" x="1386" y="-1455.8" font-family="Times,serif" font-size="14.00">Tensor: CNN2D__CNN2D_Upsample_upsample__ret_5_tran</text>
<text text-anchor="middle" x="1386" y="-1440.8" font-family="Times,serif" font-size="14.00">sfered_DwDeConv_weights_fix</text>
<text text-anchor="middle" x="1386" y="-1425.8" font-family="Times,serif" font-size="14.00">Shape: {1, 2, 4, 2}</text>
</g>
<!-- 3&#45;&gt;17 -->
<g id="edge5" class="edge">
<title>3&#45;&gt;17</title>
<path fill="none" stroke="black" d="M1386,-1417.97C1386,-1405.9 1386,-1393.02 1386,-1381.2"/>
<polygon fill="black" stroke="black" points="1389.5,-1381.14 1386,-1371.14 1382.5,-1381.14 1389.5,-1381.14"/>
</g>
<!-- 18 -->
<g id="node15" class="node">
<title>18</title>
<path fill="none" stroke="blue" d="M1076,-1267C1076,-1267 726,-1267 726,-1267 720,-1267 714,-1261 714,-1255 714,-1255 714,-1211 714,-1211 714,-1205 720,-1199 726,-1199 726,-1199 1076,-1199 1076,-1199 1082,-1199 1088,-1205 1088,-1211 1088,-1211 1088,-1255 1088,-1255 1088,-1261 1082,-1267 1076,-1267"/>
<text text-anchor="middle" x="901" y="-1251.8" font-family="Times,serif" font-size="14.00">Name: CNN2D__CNN2D_Conv2d_conv1__ret_7</text>
<text text-anchor="middle" x="901" y="-1236.8" font-family="Times,serif" font-size="14.00">Type: conv2d&#45;fix</text>
<text text-anchor="middle" x="901" y="-1221.8" font-family="Times,serif" font-size="14.00">Tensor: CNN2D__CNN2D_ReLU_relu1__ret_9_fix</text>
<text text-anchor="middle" x="901" y="-1206.8" font-family="Times,serif" font-size="14.00">Shape: {1, 1, 256, 64}</text>
</g>
<!-- 17&#45;&gt;18 -->
<g id="edge15" class="edge">
<title>17&#45;&gt;18</title>
<path fill="none" stroke="black" d="M1228.87,-1302.95C1177.53,-1292.16 1120.35,-1280.13 1068.29,-1269.18"/>
<polygon fill="black" stroke="black" points="1068.8,-1265.71 1058.3,-1267.08 1067.36,-1272.56 1068.8,-1265.71"/>
</g>
<!-- 4 -->
<g id="node12" class="node">
<title>4</title>
<path fill="none" stroke="blue" d="M1117.5,-1371C1117.5,-1371 870.5,-1371 870.5,-1371 864.5,-1371 858.5,-1365 858.5,-1359 858.5,-1359 858.5,-1315 858.5,-1315 858.5,-1309 864.5,-1303 870.5,-1303 870.5,-1303 1117.5,-1303 1117.5,-1303 1123.5,-1303 1129.5,-1309 1129.5,-1315 1129.5,-1315 1129.5,-1359 1129.5,-1359 1129.5,-1365 1123.5,-1371 1117.5,-1371"/>
<text text-anchor="middle" x="994" y="-1355.8" font-family="Times,serif" font-size="14.00">Name: CNN2D__conv1_weight</text>
<text text-anchor="middle" x="994" y="-1340.8" font-family="Times,serif" font-size="14.00">Type: const&#45;fix</text>
<text text-anchor="middle" x="994" y="-1325.8" font-family="Times,serif" font-size="14.00">Tensor: CNN2D__conv1_weight_fix</text>
<text text-anchor="middle" x="994" y="-1310.8" font-family="Times,serif" font-size="14.00">Shape: {64, 1, 3, 2}</text>
</g>
<!-- 4&#45;&gt;18 -->
<g id="edge6" class="edge">
<title>4&#45;&gt;18</title>
<path fill="none" stroke="black" d="M963.81,-1302.88C955.68,-1293.98 946.8,-1284.24 938.34,-1274.96"/>
<polygon fill="black" stroke="black" points="940.69,-1272.33 931.36,-1267.3 935.51,-1277.05 940.69,-1272.33"/>
</g>
<!-- 5 -->
<g id="node13" class="node">
<title>5</title>
<path fill="none" stroke="blue" d="M828.5,-1371C828.5,-1371 601.5,-1371 601.5,-1371 595.5,-1371 589.5,-1365 589.5,-1359 589.5,-1359 589.5,-1315 589.5,-1315 589.5,-1309 595.5,-1303 601.5,-1303 601.5,-1303 828.5,-1303 828.5,-1303 834.5,-1303 840.5,-1309 840.5,-1315 840.5,-1315 840.5,-1359 840.5,-1359 840.5,-1365 834.5,-1371 828.5,-1371"/>
<text text-anchor="middle" x="715" y="-1355.8" font-family="Times,serif" font-size="14.00">Name: CNN2D__conv1_bias</text>
<text text-anchor="middle" x="715" y="-1340.8" font-family="Times,serif" font-size="14.00">Type: const&#45;fix</text>
<text text-anchor="middle" x="715" y="-1325.8" font-family="Times,serif" font-size="14.00">Tensor: CNN2D__conv1_bias_fix</text>
<text text-anchor="middle" x="715" y="-1310.8" font-family="Times,serif" font-size="14.00">Shape: {64}</text>
</g>
<!-- 5&#45;&gt;18 -->
<g id="edge7" class="edge">
<title>5&#45;&gt;18</title>
<path fill="none" stroke="black" d="M775.39,-1302.88C793.35,-1293.04 813.16,-1282.17 831.64,-1272.03"/>
<polygon fill="black" stroke="black" points="833.51,-1275 840.6,-1267.12 830.15,-1268.86 833.51,-1275"/>
</g>
<!-- 16 -->
<g id="node14" class="node">
<title>16</title>
<path fill="none" stroke="blue" d="M1076.5,-1163C1076.5,-1163 641.5,-1163 641.5,-1163 635.5,-1163 629.5,-1157 629.5,-1151 629.5,-1151 629.5,-1077 629.5,-1077 629.5,-1071 635.5,-1065 641.5,-1065 641.5,-1065 1076.5,-1065 1076.5,-1065 1082.5,-1065 1088.5,-1071 1088.5,-1077 1088.5,-1077 1088.5,-1151 1088.5,-1151 1088.5,-1157 1082.5,-1163 1076.5,-1163"/>
<text text-anchor="middle" x="859" y="-1147.8" font-family="Times,serif" font-size="14.00">Name: CNN2D__CNN2D_AdaptiveAvgPool2d_adaptive_pool1</text>
<text text-anchor="middle" x="859" y="-1132.8" font-family="Times,serif" font-size="14.00">__446_fix</text>
<text text-anchor="middle" x="859" y="-1117.8" font-family="Times,serif" font-size="14.00">Type: pool&#45;fix</text>
<text text-anchor="middle" x="859" y="-1102.8" font-family="Times,serif" font-size="14.00">Tensor: CNN2D__CNN2D_AdaptiveAvgPool2d_adaptive_po</text>
<text text-anchor="middle" x="859" y="-1087.8" font-family="Times,serif" font-size="14.00">ol1__446_fix</text>
<text text-anchor="middle" x="859" y="-1072.8" font-family="Times,serif" font-size="14.00">Shape: {1, 1, 64, 64}</text>
</g>
<!-- 20 -->
<g id="node19" class="node">
<title>20</title>
<path fill="none" stroke="blue" d="M533.5,-1029C533.5,-1029 174.5,-1029 174.5,-1029 168.5,-1029 162.5,-1023 162.5,-1017 162.5,-1017 162.5,-973 162.5,-973 162.5,-967 168.5,-961 174.5,-961 174.5,-961 533.5,-961 533.5,-961 539.5,-961 545.5,-967 545.5,-973 545.5,-973 545.5,-1017 545.5,-1017 545.5,-1023 539.5,-1029 533.5,-1029"/>
<text text-anchor="middle" x="354" y="-1013.8" font-family="Times,serif" font-size="14.00">Name: CNN2D__CNN2D_Conv2d_conv2__ret_11</text>
<text text-anchor="middle" x="354" y="-998.8" font-family="Times,serif" font-size="14.00">Type: conv2d&#45;fix</text>
<text text-anchor="middle" x="354" y="-983.8" font-family="Times,serif" font-size="14.00">Tensor: CNN2D__CNN2D_ReLU_relu2__ret_13_fix</text>
<text text-anchor="middle" x="354" y="-968.8" font-family="Times,serif" font-size="14.00">Shape: {1, 1, 64, 128}</text>
</g>
<!-- 16&#45;&gt;20 -->
<g id="edge14" class="edge">
<title>16&#45;&gt;20</title>
<path fill="none" stroke="black" d="M651.78,-1064.99C603.21,-1053.74 552.33,-1041.95 506.65,-1031.37"/>
<polygon fill="black" stroke="black" points="507.22,-1027.91 496.69,-1029.06 505.64,-1034.72 507.22,-1027.91"/>
</g>
<!-- 18&#45;&gt;16 -->
<g id="edge8" class="edge">
<title>18&#45;&gt;16</title>
<path fill="none" stroke="black" d="M889.08,-1198.79C886.16,-1190.65 882.95,-1181.7 879.74,-1172.78"/>
<polygon fill="black" stroke="black" points="882.96,-1171.38 876.28,-1163.15 876.37,-1173.74 882.96,-1171.38"/>
</g>
<!-- 6 -->
<g id="node16" class="node">
<title>6</title>
<path fill="none" stroke="blue" d="M552.5,-1148C552.5,-1148 305.5,-1148 305.5,-1148 299.5,-1148 293.5,-1142 293.5,-1136 293.5,-1136 293.5,-1092 293.5,-1092 293.5,-1086 299.5,-1080 305.5,-1080 305.5,-1080 552.5,-1080 552.5,-1080 558.5,-1080 564.5,-1086 564.5,-1092 564.5,-1092 564.5,-1136 564.5,-1136 564.5,-1142 558.5,-1148 552.5,-1148"/>
<text text-anchor="middle" x="429" y="-1132.8" font-family="Times,serif" font-size="14.00">Name: CNN2D__conv2_weight</text>
<text text-anchor="middle" x="429" y="-1117.8" font-family="Times,serif" font-size="14.00">Type: const&#45;fix</text>
<text text-anchor="middle" x="429" y="-1102.8" font-family="Times,serif" font-size="14.00">Tensor: CNN2D__conv2_weight_fix</text>
<text text-anchor="middle" x="429" y="-1087.8" font-family="Times,serif" font-size="14.00">Shape: {128, 1, 3, 64}</text>
</g>
<!-- 6&#45;&gt;20 -->
<g id="edge9" class="edge">
<title>6&#45;&gt;20</title>
<path fill="none" stroke="black" d="M407.71,-1079.79C399.4,-1066.82 389.77,-1051.8 380.98,-1038.08"/>
<polygon fill="black" stroke="black" points="383.69,-1035.83 375.34,-1029.3 377.79,-1039.61 383.69,-1035.83"/>
</g>
<!-- 7 -->
<g id="node17" class="node">
<title>7</title>
<path fill="none" stroke="blue" d="M263.5,-1148C263.5,-1148 36.5,-1148 36.5,-1148 30.5,-1148 24.5,-1142 24.5,-1136 24.5,-1136 24.5,-1092 24.5,-1092 24.5,-1086 30.5,-1080 36.5,-1080 36.5,-1080 263.5,-1080 263.5,-1080 269.5,-1080 275.5,-1086 275.5,-1092 275.5,-1092 275.5,-1136 275.5,-1136 275.5,-1142 269.5,-1148 263.5,-1148"/>
<text text-anchor="middle" x="150" y="-1132.8" font-family="Times,serif" font-size="14.00">Name: CNN2D__conv2_bias</text>
<text text-anchor="middle" x="150" y="-1117.8" font-family="Times,serif" font-size="14.00">Type: const&#45;fix</text>
<text text-anchor="middle" x="150" y="-1102.8" font-family="Times,serif" font-size="14.00">Tensor: CNN2D__conv2_bias_fix</text>
<text text-anchor="middle" x="150" y="-1087.8" font-family="Times,serif" font-size="14.00">Shape: {128}</text>
</g>
<!-- 7&#45;&gt;20 -->
<g id="edge10" class="edge">
<title>7&#45;&gt;20</title>
<path fill="none" stroke="black" d="M207.64,-1079.94C232.41,-1065.74 261.51,-1049.05 287.21,-1034.3"/>
<polygon fill="black" stroke="black" points="289.22,-1037.19 296.15,-1029.18 285.73,-1031.12 289.22,-1037.19"/>
</g>
<!-- 19 -->
<g id="node18" class="node">
<title>19</title>
<path fill="none" stroke="blue" d="M552.5,-925C552.5,-925 117.5,-925 117.5,-925 111.5,-925 105.5,-919 105.5,-913 105.5,-913 105.5,-839 105.5,-839 105.5,-833 111.5,-827 117.5,-827 117.5,-827 552.5,-827 552.5,-827 558.5,-827 564.5,-833 564.5,-839 564.5,-839 564.5,-913 564.5,-913 564.5,-919 558.5,-925 552.5,-925"/>
<text text-anchor="middle" x="335" y="-909.8" font-family="Times,serif" font-size="14.00">Name: CNN2D__CNN2D_AdaptiveAvgPool2d_adaptive_pool2</text>
<text text-anchor="middle" x="335" y="-894.8" font-family="Times,serif" font-size="14.00">__486_fix</text>
<text text-anchor="middle" x="335" y="-879.8" font-family="Times,serif" font-size="14.00">Type: pool&#45;fix</text>
<text text-anchor="middle" x="335" y="-864.8" font-family="Times,serif" font-size="14.00">Tensor: CNN2D__CNN2D_AdaptiveAvgPool2d_adaptive_po</text>
<text text-anchor="middle" x="335" y="-849.8" font-family="Times,serif" font-size="14.00">ol2__486_fix</text>
<text text-anchor="middle" x="335" y="-834.8" font-family="Times,serif" font-size="14.00">Shape: {1, 1, 32, 128}</text>
</g>
<!-- 21 -->
<g id="node20" class="node">
<title>21</title>
<path fill="none" stroke="blue" d="M571,-780C571,-780 133,-780 133,-780 127,-780 121,-774 121,-768 121,-768 121,-694 121,-694 121,-688 127,-682 133,-682 133,-682 571,-682 571,-682 577,-682 583,-688 583,-694 583,-694 583,-768 583,-768 583,-774 577,-780 571,-780"/>
<text text-anchor="middle" x="352" y="-764.8" font-family="Times,serif" font-size="14.00">Name: CNN2D__CNN2D_AdaptiveAvgPool2d_adaptive_avg_p</text>
<text text-anchor="middle" x="352" y="-749.8" font-family="Times,serif" font-size="14.00">ool2d__504_fix</text>
<text text-anchor="middle" x="352" y="-734.8" font-family="Times,serif" font-size="14.00">Type: pool&#45;fix</text>
<text text-anchor="middle" x="352" y="-719.8" font-family="Times,serif" font-size="14.00">Tensor: CNN2D__CNN2D_AdaptiveAvgPool2d_adaptive_av</text>
<text text-anchor="middle" x="352" y="-704.8" font-family="Times,serif" font-size="14.00">g_pool2d__504_fix</text>
<text text-anchor="middle" x="352" y="-689.8" font-family="Times,serif" font-size="14.00">Shape: {1, 1, 1, 128}</text>
</g>
<!-- 19&#45;&gt;21 -->
<g id="edge16" class="edge">
<title>19&#45;&gt;21</title>
<path fill="none" stroke="black" d="M340.71,-826.99C342.11,-815.19 343.63,-802.45 345.08,-790.23"/>
<polygon fill="black" stroke="black" points="348.57,-790.47 346.28,-780.13 341.62,-789.65 348.57,-790.47"/>
</g>
<!-- 20&#45;&gt;19 -->
<g id="edge11" class="edge">
<title>20&#45;&gt;19</title>
<path fill="none" stroke="black" d="M348.61,-960.79C347.3,-952.74 345.86,-943.89 344.43,-935.07"/>
<polygon fill="black" stroke="black" points="347.88,-934.46 342.82,-925.15 340.97,-935.58 347.88,-934.46"/>
</g>
<!-- 21&#45;&gt;23 -->
<g id="edge17" class="edge">
<title>21&#45;&gt;23</title>
<path fill="none" stroke="black" d="M570.67,-681.97C620.63,-671 673.84,-659.31 724.2,-648.25"/>
<polygon fill="black" stroke="black" points="725.22,-651.61 734.24,-646.05 723.72,-644.77 725.22,-651.61"/>
</g>
<!-- 25 -->
<g id="node22" class="node">
<title>25</title>
<path fill="none" stroke="blue" d="M1753,-222C1753,-222 1319,-222 1319,-222 1313,-222 1307,-216 1307,-210 1307,-210 1307,-151 1307,-151 1307,-145 1313,-139 1319,-139 1319,-139 1753,-139 1753,-139 1759,-139 1765,-145 1765,-151 1765,-151 1765,-210 1765,-210 1765,-216 1759,-222 1753,-222"/>
<text text-anchor="middle" x="1536" y="-206.8" font-family="Times,serif" font-size="14.00">Name: CNN2D__CNN2D_Linear_fc2__ret(TransferMatMulTo</text>
<text text-anchor="middle" x="1536" y="-191.8" font-family="Times,serif" font-size="14.00">Conv2d)_inserted_fix_3_reshaped_download_0</text>
<text text-anchor="middle" x="1536" y="-176.8" font-family="Times,serif" font-size="14.00">Type: download</text>
<text text-anchor="middle" x="1536" y="-161.8" font-family="Times,serif" font-size="14.00">Tensor: CNN2D__CNN2D_Linear_fc2__ret_fix</text>
<text text-anchor="middle" x="1536" y="-146.8" font-family="Times,serif" font-size="14.00">Shape: {1, 2}</text>
</g>
<!-- 22&#45;&gt;25 -->
<g id="edge18" class="edge">
<title>22&#45;&gt;25</title>
<path fill="none" stroke="black" d="M1536,-268.85C1536,-257.08 1536,-244.45 1536,-232.55"/>
<polygon fill="black" stroke="black" points="1539.5,-232.33 1536,-222.33 1532.5,-232.33 1539.5,-232.33"/>
</g>
<!-- 26 -->
<g id="node27" class="node">
<title>26</title>
<path fill="none" stroke="red" d="M1702,-84C1702,-84 1370,-84 1370,-84 1364,-84 1358,-78 1358,-72 1358,-72 1358,-28 1358,-28 1358,-22 1364,-16 1370,-16 1370,-16 1702,-16 1702,-16 1708,-16 1714,-22 1714,-28 1714,-28 1714,-72 1714,-72 1714,-78 1708,-84 1702,-84"/>
<text text-anchor="middle" x="1536" y="-68.8" font-family="Times,serif" font-size="14.00">Name: CNN2D__CNN2D_Linear_fc2__ret_fix_</text>
<text text-anchor="middle" x="1536" y="-53.8" font-family="Times,serif" font-size="14.00">Type: fix2float</text>
<text text-anchor="middle" x="1536" y="-38.8" font-family="Times,serif" font-size="14.00">Tensor: CNN2D__CNN2D_Linear_fc2__ret_fix_</text>
<text text-anchor="middle" x="1536" y="-23.8" font-family="Times,serif" font-size="14.00">Shape: {1, 2}</text>
</g>
<!-- 25&#45;&gt;26 -->
<g id="edge26" class="edge">
<title>25&#45;&gt;26</title>
<path fill="none" stroke="black" d="M1536,-138.84C1536,-124.64 1536,-108.66 1536,-94.25"/>
<polygon fill="black" stroke="black" points="1539.5,-94.09 1536,-84.09 1532.5,-94.09 1539.5,-94.09"/>
</g>
<!-- 11 -->
<g id="node24" class="node">
<title>11</title>
<path fill="none" stroke="red" d="M2102.5,-2045C2102.5,-2045 1645.5,-2045 1645.5,-2045 1639.5,-2045 1633.5,-2039 1633.5,-2033 1633.5,-2033 1633.5,-1959 1633.5,-1959 1633.5,-1953 1639.5,-1947 1645.5,-1947 1645.5,-1947 2102.5,-1947 2102.5,-1947 2108.5,-1947 2114.5,-1953 2114.5,-1959 2114.5,-1959 2114.5,-2033 2114.5,-2033 2114.5,-2039 2108.5,-2045 2102.5,-2045"/>
<text text-anchor="middle" x="1874" y="-2029.8" font-family="Times,serif" font-size="14.00">Name: CNN2D__CNN2D_ret_3_fix_CNN2D__CNN2D_ret_3_swi</text>
<text text-anchor="middle" x="1874" y="-2014.8" font-family="Times,serif" font-size="14.00">m_transpose_0</text>
<text text-anchor="middle" x="1874" y="-1999.8" font-family="Times,serif" font-size="14.00">Type: fix2float</text>
<text text-anchor="middle" x="1874" y="-1984.8" font-family="Times,serif" font-size="14.00">Tensor: CNN2D__CNN2D_ret_3_fix_CNN2D__CNN2D_ret_3_</text>
<text text-anchor="middle" x="1874" y="-1969.8" font-family="Times,serif" font-size="14.00">swim_transpose_0</text>
<text text-anchor="middle" x="1874" y="-1954.8" font-family="Times,serif" font-size="14.00">Shape: {1, 2, 1, 128}</text>
</g>
<!-- 10&#45;&gt;11 -->
<g id="edge24" class="edge">
<title>10&#45;&gt;11</title>
<path fill="none" stroke="black" d="M1874,-2099.73C1874,-2086.38 1874,-2070.58 1874,-2055.43"/>
<polygon fill="black" stroke="black" points="1877.5,-2055.08 1874,-2045.08 1870.5,-2055.08 1877.5,-2055.08"/>
</g>
<!-- 12 -->
<g id="node25" class="node">
<title>12</title>
<path fill="none" stroke="red" d="M2056,-1911C2056,-1911 1692,-1911 1692,-1911 1686,-1911 1680,-1905 1680,-1899 1680,-1899 1680,-1855 1680,-1855 1680,-1849 1686,-1843 1692,-1843 1692,-1843 2056,-1843 2056,-1843 2062,-1843 2068,-1849 2068,-1855 2068,-1855 2068,-1899 2068,-1899 2068,-1905 2062,-1911 2056,-1911"/>
<text text-anchor="middle" x="1874" y="-1895.8" font-family="Times,serif" font-size="14.00">Name: CNN2D__CNN2D_ret_3_swim_transpose_0</text>
<text text-anchor="middle" x="1874" y="-1880.8" font-family="Times,serif" font-size="14.00">Type: transpose</text>
<text text-anchor="middle" x="1874" y="-1865.8" font-family="Times,serif" font-size="14.00">Tensor: CNN2D__CNN2D_ret_3_swim_transpose_0</text>
<text text-anchor="middle" x="1874" y="-1850.8" font-family="Times,serif" font-size="14.00">Shape: {1, 1, 128, 2}</text>
</g>
<!-- 11&#45;&gt;12 -->
<g id="edge21" class="edge">
<title>11&#45;&gt;12</title>
<path fill="none" stroke="black" d="M1874,-1946.74C1874,-1938.33 1874,-1929.63 1874,-1921.36"/>
<polygon fill="black" stroke="black" points="1877.5,-1921.17 1874,-1911.17 1870.5,-1921.17 1877.5,-1921.17"/>
</g>
<!-- 13 -->
<g id="node26" class="node">
<title>13</title>
<path fill="none" stroke="red" d="M2068.5,-1807C2068.5,-1807 1679.5,-1807 1679.5,-1807 1673.5,-1807 1667.5,-1801 1667.5,-1795 1667.5,-1795 1667.5,-1751 1667.5,-1751 1667.5,-1745 1673.5,-1739 1679.5,-1739 1679.5,-1739 2068.5,-1739 2068.5,-1739 2074.5,-1739 2080.5,-1745 2080.5,-1751 2080.5,-1751 2080.5,-1795 2080.5,-1795 2080.5,-1801 2074.5,-1807 2068.5,-1807"/>
<text text-anchor="middle" x="1874" y="-1791.8" font-family="Times,serif" font-size="14.00">Name: CNN2D__CNN2D_ret_3_swim_transpose_0_fix</text>
<text text-anchor="middle" x="1874" y="-1776.8" font-family="Times,serif" font-size="14.00">Type: float2fix</text>
<text text-anchor="middle" x="1874" y="-1761.8" font-family="Times,serif" font-size="14.00">Tensor: CNN2D__CNN2D_ret_3_swim_transpose_0_fix</text>
<text text-anchor="middle" x="1874" y="-1746.8" font-family="Times,serif" font-size="14.00">Shape: {1, 1, 128, 2}</text>
</g>
<!-- 12&#45;&gt;13 -->
<g id="edge22" class="edge">
<title>12&#45;&gt;13</title>
<path fill="none" stroke="black" d="M1874,-1842.88C1874,-1834.78 1874,-1825.98 1874,-1817.47"/>
<polygon fill="black" stroke="black" points="1877.5,-1817.3 1874,-1807.3 1870.5,-1817.3 1877.5,-1817.3"/>
</g>
<!-- 13&#45;&gt;14 -->
<g id="edge25" class="edge">
<title>13&#45;&gt;14</title>
<path fill="none" stroke="black" d="M1874,-1738.67C1874,-1719.16 1874,-1693.98 1874,-1671.29"/>
<polygon fill="black" stroke="black" points="1877.5,-1671.07 1874,-1661.07 1870.5,-1671.07 1877.5,-1671.07"/>
</g>
</g>
</svg>
